<?xml version="1.0" standalone="no"?><!DOCTYPE svg PUBLIC "-//W3C//DTD SVG 1.1//EN" "http://www.w3.org/Graphics/SVG/1.1/DTD/svg11.dtd"><svg t="1597478315926" class="icon" viewBox="0 0 1024 1024" version="1.1" xmlns="http://www.w3.org/2000/svg" p-id="81493" width="128" height="128" xmlns:xlink="http://www.w3.org/1999/xlink"><defs><style type="text/css"></style></defs><path d="M287.844775 684.297481c-17.850108-1.10527-35.967323-8.235344-52.592965-19.13092A142.725553 142.725553 0 0 1 167.199153 512.455653a57.79261 57.79261 0 0 1 3.262172-12.652089c17.917833-58.183247 72.075513-100.474447 136.108021-100.474447h0.119738a177.714387 177.714387 0 0 1-0.119738-6.164046c0-96.254916 77.984914-174.285342 174.184567-174.285342 86.894256 0 154.65705 53.313016 173.690447 138.05037 22.094561-10.735204 45.240212-15.283606 71.447026-15.283606 92.528423 0 167.535069 82.445545 167.535069 175.024897a167.040406 167.040406 0 0 1-42.401185 111.443167c-26.082201 31.402667-64.506582 56.18455-109.855154 56.18455h-453.323174z" fill="#B0E0F7" p-id="81494"></path><path d="M540.459073 683.679831c15.155742 1.099852 175.446959-0.297989 196.05699 0.167957 88.800847 1.603725 156.910392-82.629757 156.910392-171.16458 0-88.472516-79.265185-170.998248-163.899598-170.998247-39.583831 0-55.45854 6.815289-74.892868 15.349706-4.719069 19.780538-101.668571 304.07382-114.174916 326.645164z" fill="#B8CBD4" p-id="81495"></path></svg>