<?xml version="1.0" standalone="no"?><!DOCTYPE svg PUBLIC "-//W3C//DTD SVG 1.1//EN" "http://www.w3.org/Graphics/SVG/1.1/DTD/svg11.dtd"><svg t="1596855974367" class="icon" viewBox="0 0 1024 1024" version="1.1" xmlns="http://www.w3.org/2000/svg" p-id="22938" xmlns:xlink="http://www.w3.org/1999/xlink" width="200" height="200"><defs><style type="text/css"></style></defs><path d="M626.06113422 155.6767873L495.97488197-65.84690315S374.37251572 158.5047493 379.08578574 156.6194413a368.57771473 368.57771473 0 0 1 247.91800249 0z m19.79573406 7.54123201a377.06160075 377.06160075 0 0 1 188.53080036 169.67772033c5.65592402-14.13981003 62.21516412-244.14738649 62.21516412-244.14738648l-249.8033105 74.46966615z m202.67061039 488.29477297a377.06160075 377.06160075 0 0 1-198.89999439 199.84264839l263.94312051 56.55924012-65.04312612-257.34454252z m-464.72842294 207.38388041z m0 0L512 1089.84690315l110.29051822-230.95023046a367.63506073 367.63506073 0 0 1-243.20473248 0z m-213.0398044-188.53080037L116.08531921 907.91468079l245.09004048-56.55924012a377.06160075 377.06160075 0 0 1-190.41610836-180.04691434z m-5.65592402-315.78909063a377.06160075 377.06160075 0 0 1 174.39099035-180.98956836c-22.62369604-7.54123201-263.00046653-65.04312613-263.00046652-65.04312613l88.60947617 246.9753485z" fill="#F6D3A8" p-id="22939"></path><path d="M627.94644224 155.6767873L497.86018997-65.84690315S375.31516973 158.5047493 380.02843973 156.6194413a368.57771473 368.57771473 0 0 1 247.91800251 0zM878.69240673 512a371.40567674 371.40567674 0 0 1-22.62369604 128.20094427L1077.59240112 490.31895795 849.47013268 361.17535969a371.40567674 371.40567674 0 0 1 29.22227405 150.82464031z m-493.95069698 346.89667269z m0 0l131.97156026 230.95023046 110.29051822-230.95023046a367.63506073 367.63506073 0 0 1-243.2047325 0zM134.93839925 512a371.40567674 371.40567674 0 0 1 18.85308005-125.37298226L-53.59240112 512l216.81042043 141.39810029A371.40567674 371.40567674 0 0 1 134.93839925 512z" fill="#F5AF95" p-id="22940"></path><path d="M282.93507755 330.06777764a236.60615446 236.60615446 0 0 0-61.27251013 164.96445033V534.62369604a243.20473248 243.20473248 0 0 0 10.36919402 38.64881408 227.17961445 227.17961445 0 0 0 37.70616009 67.87108813 251.6886185 251.6886185 0 0 0 104.63459419 75.41232016 295.05070258 295.05070258 0 0 0 94.26540019 19.79573404 227.17961445 227.17961445 0 0 0 64.10047212-5.65592401 160.25118032 160.25118032 0 1 0-164.96445031-141.39810028l-6.59857803-15.08246404a140.45544628 140.45544628 0 0 1-24.50900403-83.89620617 136.68483027 136.68483027 0 0 1 32.99289006-86.72416818 188.53080036 188.53080036 0 0 1 94.26540019-58.44454811l31.10758206-6.598578H527.08246403a199.84264839 199.84264839 0 0 1 164.96445032 73.52701214 231.89288446 231.89288446 0 0 1 48.0753541 116.88909623 251.6886185 251.6886185 0 0 1-13.19715602 122.54502025 201.72795642 201.72795642 0 0 1-68.81374216 86.72416817 313.90378262 313.90378262 0 0 1-88.60947615 45.24739208 471.32700093 471.32700093 0 0 1-76.35497415 18.85308005 443.04738087 443.04738087 0 0 1-68.81374214 6.598578v6.59857803a435.50614886 435.50614886 0 0 0 70.69905014 0 489.23742698 489.23742698 0 0 0 81.06824416-10.36919403 339.35544067 339.35544067 0 0 0 100.8639782-38.64881408 242.26207847 242.26207847 0 0 0 94.26540019-94.26540018 282.79620057 282.79620057 0 0 0 23.56635005-74.46966614 329.92890064 329.92890064 0 0 0 4.71326999-37.70616009v-9.42654001-5.65592402-18.85308003a294.10804859 294.10804859 0 0 0-47.1327001-157.42321831A282.79620057 282.79620057 0 0 0 615.69194019 256.54076549a292.22274059 292.22274059 0 0 0-88.60947616-17.91042602H483.72037994a359.15117471 359.15117471 0 0 0-43.36208408 5.655924 273.36966053 273.36966053 0 0 0-156.48056431 85.78151417z" fill="#F5964D" p-id="22941"></path></svg>